%TF.GenerationSoftware,Altium Limited,Altium Designer,22.11.1 (43)*%
G04 Layer_Color=128*
%FSLAX45Y45*%
%MOMM*%
%TF.SameCoordinates,F25CF00E-CD35-404E-9013-36C82019CF52*%
%TF.FilePolarity,Positive*%
%TF.FileFunction,Drillmap*%
%TF.Part,Single*%
G01*
G75*
%TA.AperFunction,NonConductor*%
%ADD71C,0.12700*%
D71*
X745180Y2110220D02*
X865180D01*
X805180Y2050220D02*
Y2170220D01*
X745180Y1760220D02*
X865180D01*
X805180Y1700220D02*
Y1820220D01*
X745180Y889520D02*
X865180D01*
X805180Y829520D02*
Y949520D01*
X745180Y1239520D02*
X865180D01*
X805180Y1179520D02*
Y1299520D01*
X5520000Y350000D02*
X5780000D01*
X5650000Y220000D02*
Y480000D01*
X220000Y2650000D02*
X480000D01*
X350000Y2520000D02*
Y2780000D01*
X5520000Y2650000D02*
X5780000D01*
X5650000Y2520000D02*
Y2780000D01*
X220000Y350000D02*
X480000D01*
X350000Y220000D02*
Y480000D01*
X1666440Y2214880D02*
X1691440D01*
X1678940Y2202380D02*
Y2227380D01*
X1785820Y1226820D02*
X1810820D01*
X1798320Y1214320D02*
Y1239320D01*
X1524200Y274320D02*
X1549200D01*
X1536700Y261820D02*
Y286820D01*
X1529280Y391160D02*
X1554280D01*
X1541780Y378660D02*
Y403660D01*
X1529280Y500380D02*
X1554280D01*
X1541780Y487880D02*
Y512880D01*
X5636460Y1592580D02*
X5661460D01*
X5648960Y1580080D02*
Y1605080D01*
X5621220Y1424940D02*
X5646220D01*
X5633720Y1412440D02*
Y1437440D01*
X5621220Y1257300D02*
X5646220D01*
X5633720Y1244800D02*
Y1269800D01*
X1247340Y1394460D02*
X1272340D01*
X1259840Y1381960D02*
Y1406960D01*
X1770580Y1102360D02*
X1795580D01*
X1783080Y1089860D02*
Y1114860D01*
X917140Y2562860D02*
X942140D01*
X929640Y2550360D02*
Y2575360D01*
X917140Y2692400D02*
X942140D01*
X929640Y2679900D02*
Y2704900D01*
X917140Y2816860D02*
X942140D01*
X929640Y2804360D02*
Y2829360D01*
X1056840Y784860D02*
X1081840D01*
X1069340Y772360D02*
Y797360D01*
X1369260Y1831340D02*
X1394260D01*
X1381760Y1818840D02*
Y1843840D01*
X1303220Y1983740D02*
X1328220D01*
X1315720Y1971240D02*
Y1996240D01*
X5778920Y491420D02*
X5803920D01*
X5791420Y478920D02*
Y503920D01*
X5837500Y350000D02*
X5862500D01*
X5850000Y337500D02*
Y362500D01*
X5637500Y550000D02*
X5662500D01*
X5650000Y537500D02*
Y562500D01*
X5778920Y208580D02*
X5803920D01*
X5791420Y196080D02*
Y221080D01*
X5637500Y150000D02*
X5662500D01*
X5650000Y137500D02*
Y162500D01*
X5496080Y491420D02*
X5521080D01*
X5508580Y478920D02*
Y503920D01*
X5437500Y350000D02*
X5462500D01*
X5450000Y337500D02*
Y362500D01*
X5496080Y208580D02*
X5521080D01*
X5508580Y196080D02*
Y221080D01*
X337500Y2850000D02*
X362500D01*
X350000Y2837500D02*
Y2862500D01*
X537500Y2650000D02*
X562500D01*
X550000Y2637500D02*
Y2662500D01*
X337500Y2450000D02*
X362500D01*
X350000Y2437500D02*
Y2462500D01*
X137500Y2650000D02*
X162500D01*
X150000Y2637500D02*
Y2662500D01*
X196080Y2791420D02*
X221080D01*
X208580Y2778920D02*
Y2803920D01*
X478920Y2791420D02*
X503920D01*
X491420Y2778920D02*
Y2803920D01*
X478920Y2508580D02*
X503920D01*
X491420Y2496080D02*
Y2521080D01*
X196080Y2508580D02*
X221080D01*
X208580Y2496080D02*
Y2521080D01*
X5637500Y2850000D02*
X5662500D01*
X5650000Y2837500D02*
Y2862500D01*
X5837500Y2650000D02*
X5862500D01*
X5850000Y2637500D02*
Y2662500D01*
X5637500Y2450000D02*
X5662500D01*
X5650000Y2437500D02*
Y2462500D01*
X5437500Y2650000D02*
X5462500D01*
X5450000Y2637500D02*
Y2662500D01*
X5496080Y2791420D02*
X5521080D01*
X5508580Y2778920D02*
Y2803920D01*
X5778920Y2791420D02*
X5803920D01*
X5791420Y2778920D02*
Y2803920D01*
X5778920Y2508580D02*
X5803920D01*
X5791420Y2496080D02*
Y2521080D01*
X5496080Y2508580D02*
X5521080D01*
X5508580Y2496080D02*
Y2521080D01*
X337500Y550000D02*
X362500D01*
X350000Y537500D02*
Y562500D01*
X537500Y350000D02*
X562500D01*
X550000Y337500D02*
Y362500D01*
X337500Y150000D02*
X362500D01*
X350000Y137500D02*
Y162500D01*
X137500Y350000D02*
X162500D01*
X150000Y337500D02*
Y362500D01*
X196080Y491420D02*
X221080D01*
X208580Y478920D02*
Y503920D01*
X478920Y491420D02*
X503920D01*
X491420Y478920D02*
Y503920D01*
X478920Y208580D02*
X503920D01*
X491420Y196080D02*
Y221080D01*
X196080Y208580D02*
X221080D01*
X208580Y196080D02*
Y221080D01*
%TF.MD5,60c1109c4b0ea016e89d154c9784f676*%
M02*
