%TF.GenerationSoftware,Altium Limited,Altium Designer,22.11.1 (43)*%
G04 Layer_Color=8421504*
%FSLAX45Y45*%
%MOMM*%
%TF.SameCoordinates,F25CF00E-CD35-404E-9013-36C82019CF52*%
%TF.FilePolarity,Positive*%
%TF.FileFunction,Paste,Top*%
%TF.Part,Single*%
G01*
G75*
%TA.AperFunction,SMDPad,CuDef*%
G04:AMPARAMS|DCode=10|XSize=0.75mm|YSize=0.9mm|CornerRadius=0.09375mm|HoleSize=0mm|Usage=FLASHONLY|Rotation=90.000|XOffset=0mm|YOffset=0mm|HoleType=Round|Shape=RoundedRectangle|*
%AMROUNDEDRECTD10*
21,1,0.75000,0.71250,0,0,90.0*
21,1,0.56250,0.90000,0,0,90.0*
1,1,0.18750,0.35625,0.28125*
1,1,0.18750,0.35625,-0.28125*
1,1,0.18750,-0.35625,-0.28125*
1,1,0.18750,-0.35625,0.28125*
%
%ADD10ROUNDEDRECTD10*%
G04:AMPARAMS|DCode=11|XSize=0.45mm|YSize=0.95mm|CornerRadius=0.05625mm|HoleSize=0mm|Usage=FLASHONLY|Rotation=270.000|XOffset=0mm|YOffset=0mm|HoleType=Round|Shape=RoundedRectangle|*
%AMROUNDEDRECTD11*
21,1,0.45000,0.83750,0,0,270.0*
21,1,0.33750,0.95000,0,0,270.0*
1,1,0.11250,-0.41875,-0.16875*
1,1,0.11250,-0.41875,0.16875*
1,1,0.11250,0.41875,0.16875*
1,1,0.11250,0.41875,-0.16875*
%
%ADD11ROUNDEDRECTD11*%
G04:AMPARAMS|DCode=12|XSize=5.1mm|YSize=10mm|CornerRadius=0.6375mm|HoleSize=0mm|Usage=FLASHONLY|Rotation=270.000|XOffset=0mm|YOffset=0mm|HoleType=Round|Shape=RoundedRectangle|*
%AMROUNDEDRECTD12*
21,1,5.10000,8.72500,0,0,270.0*
21,1,3.82500,10.00000,0,0,270.0*
1,1,1.27500,-4.36250,-1.91250*
1,1,1.27500,-4.36250,1.91250*
1,1,1.27500,4.36250,1.91250*
1,1,1.27500,4.36250,-1.91250*
%
%ADD12ROUNDEDRECTD12*%
G04:AMPARAMS|DCode=13|XSize=1.1mm|YSize=1mm|CornerRadius=0.25mm|HoleSize=0mm|Usage=FLASHONLY|Rotation=90.000|XOffset=0mm|YOffset=0mm|HoleType=Round|Shape=RoundedRectangle|*
%AMROUNDEDRECTD13*
21,1,1.10000,0.50000,0,0,90.0*
21,1,0.60000,1.00000,0,0,90.0*
1,1,0.50000,0.25000,0.30000*
1,1,0.50000,0.25000,-0.30000*
1,1,0.50000,-0.25000,-0.30000*
1,1,0.50000,-0.25000,0.30000*
%
%ADD13ROUNDEDRECTD13*%
G04:AMPARAMS|DCode=14|XSize=1.1mm|YSize=1mm|CornerRadius=0.25mm|HoleSize=0mm|Usage=FLASHONLY|Rotation=180.000|XOffset=0mm|YOffset=0mm|HoleType=Round|Shape=RoundedRectangle|*
%AMROUNDEDRECTD14*
21,1,1.10000,0.50000,0,0,180.0*
21,1,0.60000,1.00000,0,0,180.0*
1,1,0.50000,-0.30000,0.25000*
1,1,0.50000,0.30000,0.25000*
1,1,0.50000,0.30000,-0.25000*
1,1,0.50000,-0.30000,-0.25000*
%
%ADD14ROUNDEDRECTD14*%
G04:AMPARAMS|DCode=15|XSize=0.9mm|YSize=0.6mm|CornerRadius=0.075mm|HoleSize=0mm|Usage=FLASHONLY|Rotation=0.000|XOffset=0mm|YOffset=0mm|HoleType=Round|Shape=RoundedRectangle|*
%AMROUNDEDRECTD15*
21,1,0.90000,0.45000,0,0,0.0*
21,1,0.75000,0.60000,0,0,0.0*
1,1,0.15000,0.37500,-0.22500*
1,1,0.15000,-0.37500,-0.22500*
1,1,0.15000,-0.37500,0.22500*
1,1,0.15000,0.37500,0.22500*
%
%ADD15ROUNDEDRECTD15*%
G04:AMPARAMS|DCode=17|XSize=1.2mm|YSize=0.6mm|CornerRadius=0.075mm|HoleSize=0mm|Usage=FLASHONLY|Rotation=0.000|XOffset=0mm|YOffset=0mm|HoleType=Round|Shape=RoundedRectangle|*
%AMROUNDEDRECTD17*
21,1,1.20000,0.45000,0,0,0.0*
21,1,1.05000,0.60000,0,0,0.0*
1,1,0.15000,0.52500,-0.22500*
1,1,0.15000,-0.52500,-0.22500*
1,1,0.15000,-0.52500,0.22500*
1,1,0.15000,0.52500,0.22500*
%
%ADD17ROUNDEDRECTD17*%
G04:AMPARAMS|DCode=18|XSize=3.3mm|YSize=2.45mm|CornerRadius=0.30625mm|HoleSize=0mm|Usage=FLASHONLY|Rotation=90.000|XOffset=0mm|YOffset=0mm|HoleType=Round|Shape=RoundedRectangle|*
%AMROUNDEDRECTD18*
21,1,3.30000,1.83750,0,0,90.0*
21,1,2.68750,2.45000,0,0,90.0*
1,1,0.61250,0.91875,1.34375*
1,1,0.61250,0.91875,-1.34375*
1,1,0.61250,-0.91875,-1.34375*
1,1,0.61250,-0.91875,1.34375*
%
%ADD18ROUNDEDRECTD18*%
%ADD19R,2.45000X3.30000*%
G04:AMPARAMS|DCode=20|XSize=0.95mm|YSize=0.9mm|CornerRadius=0.1125mm|HoleSize=0mm|Usage=FLASHONLY|Rotation=90.000|XOffset=0mm|YOffset=0mm|HoleType=Round|Shape=RoundedRectangle|*
%AMROUNDEDRECTD20*
21,1,0.95000,0.67500,0,0,90.0*
21,1,0.72500,0.90000,0,0,90.0*
1,1,0.22500,0.33750,0.36250*
1,1,0.22500,0.33750,-0.36250*
1,1,0.22500,-0.33750,-0.36250*
1,1,0.22500,-0.33750,0.36250*
%
%ADD20ROUNDEDRECTD20*%
%ADD21R,0.90000X0.95000*%
G04:AMPARAMS|DCode=22|XSize=1mm|YSize=1mm|CornerRadius=0.25mm|HoleSize=0mm|Usage=FLASHONLY|Rotation=0.000|XOffset=0mm|YOffset=0mm|HoleType=Round|Shape=RoundedRectangle|*
%AMROUNDEDRECTD22*
21,1,1.00000,0.50000,0,0,0.0*
21,1,0.50000,1.00000,0,0,0.0*
1,1,0.50000,0.25000,-0.25000*
1,1,0.50000,-0.25000,-0.25000*
1,1,0.50000,-0.25000,0.25000*
1,1,0.50000,0.25000,0.25000*
%
%ADD22ROUNDEDRECTD22*%
G04:AMPARAMS|DCode=23|XSize=1mm|YSize=1mm|CornerRadius=0.25mm|HoleSize=0mm|Usage=FLASHONLY|Rotation=90.000|XOffset=0mm|YOffset=0mm|HoleType=Round|Shape=RoundedRectangle|*
%AMROUNDEDRECTD23*
21,1,1.00000,0.50000,0,0,90.0*
21,1,0.50000,1.00000,0,0,90.0*
1,1,0.50000,0.25000,0.25000*
1,1,0.50000,0.25000,-0.25000*
1,1,0.50000,-0.25000,-0.25000*
1,1,0.50000,-0.25000,0.25000*
%
%ADD23ROUNDEDRECTD23*%
G04:AMPARAMS|DCode=24|XSize=0.45mm|YSize=1.05mm|CornerRadius=0.05625mm|HoleSize=0mm|Usage=FLASHONLY|Rotation=90.000|XOffset=0mm|YOffset=0mm|HoleType=Round|Shape=RoundedRectangle|*
%AMROUNDEDRECTD24*
21,1,0.45000,0.93750,0,0,90.0*
21,1,0.33750,1.05000,0,0,90.0*
1,1,0.11250,0.46875,0.16875*
1,1,0.11250,0.46875,-0.16875*
1,1,0.11250,-0.46875,-0.16875*
1,1,0.11250,-0.46875,0.16875*
%
%ADD24ROUNDEDRECTD24*%
G04:AMPARAMS|DCode=25|XSize=0.65mm|YSize=1.3mm|CornerRadius=0.08125mm|HoleSize=0mm|Usage=FLASHONLY|Rotation=90.000|XOffset=0mm|YOffset=0mm|HoleType=Round|Shape=RoundedRectangle|*
%AMROUNDEDRECTD25*
21,1,0.65000,1.13750,0,0,90.0*
21,1,0.48750,1.30000,0,0,90.0*
1,1,0.16250,0.56875,0.24375*
1,1,0.16250,0.56875,-0.24375*
1,1,0.16250,-0.56875,-0.24375*
1,1,0.16250,-0.56875,0.24375*
%
%ADD25ROUNDEDRECTD25*%
G04:AMPARAMS|DCode=26|XSize=0.5mm|YSize=1.4mm|CornerRadius=0.0625mm|HoleSize=0mm|Usage=FLASHONLY|Rotation=180.000|XOffset=0mm|YOffset=0mm|HoleType=Round|Shape=RoundedRectangle|*
%AMROUNDEDRECTD26*
21,1,0.50000,1.27500,0,0,180.0*
21,1,0.37500,1.40000,0,0,180.0*
1,1,0.12500,-0.18750,0.63750*
1,1,0.12500,0.18750,0.63750*
1,1,0.12500,0.18750,-0.63750*
1,1,0.12500,-0.18750,-0.63750*
%
%ADD26ROUNDEDRECTD26*%
G04:AMPARAMS|DCode=27|XSize=0.45mm|YSize=1.05mm|CornerRadius=0.05625mm|HoleSize=0mm|Usage=FLASHONLY|Rotation=180.000|XOffset=0mm|YOffset=0mm|HoleType=Round|Shape=RoundedRectangle|*
%AMROUNDEDRECTD27*
21,1,0.45000,0.93750,0,0,180.0*
21,1,0.33750,1.05000,0,0,180.0*
1,1,0.11250,-0.16875,0.46875*
1,1,0.11250,0.16875,0.46875*
1,1,0.11250,0.16875,-0.46875*
1,1,0.11250,-0.16875,-0.46875*
%
%ADD27ROUNDEDRECTD27*%
G36*
X1452200Y2446360D02*
X1334020D01*
Y2565880D01*
X1452200D01*
Y2446360D01*
D02*
G37*
G36*
X1612200D02*
X1494020D01*
Y2565880D01*
X1612200D01*
Y2446360D01*
D02*
G37*
G36*
X1452200Y2686360D02*
X1334020D01*
Y2805880D01*
X1452200D01*
Y2686360D01*
D02*
G37*
G36*
X1612200D02*
X1494020D01*
Y2805880D01*
X1612200D01*
Y2686360D01*
D02*
G37*
D10*
X1427480Y2214880D02*
D03*
X1772480D02*
D03*
D11*
X1537920Y2004060D02*
D03*
X1772920D02*
D03*
D12*
X2456180Y497840D02*
D03*
Y2529840D02*
D03*
X3578860Y497840D02*
D03*
Y2529840D02*
D03*
X4706620Y497840D02*
D03*
Y2529840D02*
D03*
D13*
X1073580Y894080D02*
D03*
X1218580D02*
D03*
X1497220Y1831340D02*
D03*
X1642220D02*
D03*
X1640920Y1678940D02*
D03*
X1495920D02*
D03*
X1218580Y1049020D02*
D03*
X1073580D02*
D03*
X5686980Y2034540D02*
D03*
X5831980D02*
D03*
X5686980Y2214880D02*
D03*
X5831980D02*
D03*
X5519560Y1424940D02*
D03*
X5374560D02*
D03*
D14*
X1368360Y899080D02*
D03*
Y1044080D02*
D03*
X1242060Y1800940D02*
D03*
Y1655940D02*
D03*
X1798320Y1826400D02*
D03*
Y1681400D02*
D03*
X1092200Y1800940D02*
D03*
Y1655940D02*
D03*
D15*
X1692200Y2689860D02*
D03*
Y2816860D02*
D03*
Y2562860D02*
D03*
Y2435860D02*
D03*
D17*
X1092200Y2689860D02*
D03*
Y2816860D02*
D03*
Y2435860D02*
D03*
Y2562860D02*
D03*
D18*
X1747520Y391160D02*
D03*
D19*
X1087120D02*
D03*
D20*
X5523220Y2214880D02*
D03*
X5524480Y2034540D02*
D03*
D21*
X5363220Y2214880D02*
D03*
X5364480Y2034540D02*
D03*
D22*
X1798320Y1345940D02*
D03*
Y1490940D02*
D03*
X1132840Y1441560D02*
D03*
Y1296560D02*
D03*
D23*
X5512060Y1257300D02*
D03*
X5367060D02*
D03*
D24*
X1783080Y1025120D02*
D03*
Y895120D02*
D03*
Y960120D02*
D03*
X1553080Y1025120D02*
D03*
Y960120D02*
D03*
Y895120D02*
D03*
D25*
X1597660Y1488440D02*
D03*
Y1298440D02*
D03*
X1397660Y1488440D02*
D03*
Y1393440D02*
D03*
Y1298440D02*
D03*
D26*
X5558540Y1594040D02*
D03*
X5368540D02*
D03*
X5463540Y1844040D02*
D03*
D27*
X1222200Y1984880D02*
D03*
X1157200D02*
D03*
X1092200D02*
D03*
X1157200Y2214880D02*
D03*
X1222200D02*
D03*
X1092200D02*
D03*
%TF.MD5,67236bfe70ec96509c3dc9db4f1ef0b2*%
M02*
